<svg xmlns="http://www.w3.org/2000/svg" viewBox="0 0 810.77 258.5"><defs><style>.cls-1{fill:#f2f2f2;}</style></defs><g id="Camada_2" data-name="Camada 2"><g id="Camada_1-2" data-name="Camada 1"><path class="cls-1" d="M418.28,194.28l-42.9-97.83L335.1,194.28,260.69,24.66h28l45.74,107,26.92-67.41L374.5,30.79l14.23,33.05,28.89,67.85,42.68-107h27.79Z"/><path class="cls-1" d="M641.3,187.06V100.83l-50.77,75.73-51-75.73v86.23H514.14V17.22L590.53,131,666.91,17.22V187.06Z"/><path class="cls-1" d="M746.59,187.06q-25-1.63-51.22-19.7l14.45-20.79c24.07,16.86,46.83,19.7,62.15,8.32,10.95-8.32,16.2-22.76,12.26-34.58a24.55,24.55,0,0,0-10.94-13.13c-6.79-4.16-16-6.13-27.36-6.13l-21.67.22,28-51.44H705.66V24.66h89.51l-29.1,53a74.62,74.62,0,0,1,20.57,7.88,49.63,49.63,0,0,1,21.45,26.7c3.72,10.73,3.5,23-.22,34.36a59.74,59.74,0,0,1-57.56,40.49Z"/><path class="cls-1" d="M150,240.44a10.54,10.54,0,0,0,3.3,0,10.54,10.54,0,0,1-3.3,0Z"/><path class="cls-1" d="M49.35,249.56a10.85,10.85,0,0,0,12.12,0,10.85,10.85,0,0,1-12.12,0Z"/><path class="cls-1" d="M150.58,51.84a12,12,0,0,0,.22-2.17A12.62,12.62,0,0,0,128.94,41a69,69,0,0,0-49.5,2.57C34.08,63.39,10.87,116,8.74,162.93c-.11,2.48-.08,5-.08,7.46a12.65,12.65,0,1,0,8.27.08c.44-44.55,18-92.07,57.77-115.27,15.93-9.29,33.71-12.06,50.9-6.74,0,.41-.12.8-.12,1.21A12.6,12.6,0,0,0,146.59,59a102.55,102.55,0,0,1,39.52,54.85,131.21,131.21,0,0,1,4.59,41.7,47.23,47.23,0,0,1-5,19.86,12.46,12.46,0,0,0-3.47-.54,12.68,12.68,0,0,0-12.66,12.66,12.13,12.13,0,0,0,.22,2.19c-12.25,4-27.12-2.16-33.68-13.22-6.34-10.66-3.83-22-4.94-33.69-1-10.32-4.17-20.67-10.83-28.78-5.1-6.22-12.67-10.75-20.93-10.07-9.79.8-17.25,8.19-22.24,16.1C66.8,136.45,62.8,157.89,64.34,177a89.09,89.09,0,0,0,29.78,59.65c2.22,2,4.53,3.83,6.9,5.61a12.48,12.48,0,0,0-.58,3.58,12.74,12.74,0,1,0,5.38-10.33c-17.06-13.17-29.33-31.19-32.66-53.14-2.92-19.27.57-41.49,11-58.13,4.44-7,12.11-14.52,21.14-11.38,8.55,3,13.46,12.49,15.78,20.64,3.38,11.92.38,24.18,3.34,36.11a39,39,0,0,0,16.13,23.22,36.55,36.55,0,0,0,32.94,3.94,12.62,12.62,0,0,0,18.91-16.56c4.49-8,6.28-17.23,6.53-26.5a140.56,140.56,0,0,0-5.15-42.66A111.11,111.11,0,0,0,150.58,51.84ZM18.08,182.34a5.22,5.22,0,1,1-5.22-5.22A5.22,5.22,0,0,1,18.08,182.34ZM138.39,54.81a5.22,5.22,0,1,1,5.22-5.22A5.22,5.22,0,0,1,138.39,54.81ZM113,240.89a5.23,5.23,0,1,1-5.22,5.23A5.23,5.23,0,0,1,113,240.89Zm69.36-47.53a5.22,5.22,0,1,1,5.23-5.22A5.22,5.22,0,0,1,182.35,193.36Z"/><path class="cls-1" d="M151.62,217.06a12.64,12.64,0,0,0-10.28,5.33,59.88,59.88,0,0,1-30.51-24.34,61.5,61.5,0,0,1-8.52-37.24,12.69,12.69,0,1,0-8.17-1.53c-1.4,14.87,1.84,30.39,9.6,42.92A68.69,68.69,0,0,0,139,230.27a12.64,12.64,0,1,0,12.61-13.21Zm-56.5-68.45a5.23,5.23,0,1,1,5.22,5.22A5.22,5.22,0,0,1,95.12,148.61Zm56.5,92a11.14,11.14,0,0,1-1.65-.13,10.54,10.54,0,0,0,3.3,0A11.24,11.24,0,0,1,151.62,240.57Zm.28-5.44a5.22,5.22,0,1,1,5.22-5.22A5.22,5.22,0,0,1,151.9,235.13Z"/><path class="cls-1" d="M55.41,227.9A12.58,12.58,0,0,0,54,228a149,149,0,0,1-7.86-28.47c-4.46-23.82-3.51-49.72,5.38-72.46,1.07-2.75,2.34-5.49,3.69-8.21a12.36,12.36,0,0,0,1.73.17,12.68,12.68,0,0,0,12.66-12.66,12.5,12.5,0,0,0-2-6.79,77.09,77.09,0,0,1,16.6-15.44c7.37-4.94,16-8.17,25-7.12,8.37,1,16,5.44,22.11,11.13,13.4,12.57,20.14,30.33,22.05,48.42a12.73,12.73,0,1,0,8.22-.39c-1.81-17.67-8-34.92-19.52-48.6C129.49,72.73,110,64.13,90.91,71.46,79.16,76,69.26,84.53,61.24,94.54a12.46,12.46,0,0,0-4.28-.8,12.66,12.66,0,0,0-9,21.59C36.76,137.43,33.69,163.52,36.25,188c1.5,14.32,4.53,29.79,10.3,43.57a12.64,12.64,0,1,0,8.86-3.64Zm103.08-84.51a5.22,5.22,0,1,1-5.22,5.22A5.22,5.22,0,0,1,158.49,143.39ZM57,101.33a5.22,5.22,0,1,1-5.22,5.22A5.22,5.22,0,0,1,57,101.33Zm-1.55,134a5.22,5.22,0,1,1-5.23,5.22A5.22,5.22,0,0,1,55.41,235.29Zm0,16.12a10.84,10.84,0,0,1-6.06-1.85,10.85,10.85,0,0,0,12.12,0A10.87,10.87,0,0,1,55.41,251.41Z"/><path class="cls-1" d="M210,71h-.14C200.48,45,181.54,22.89,156.56,10.62c-30.07-14.77-65.7-14-95.37,1.43a109.17,109.17,0,0,0-34.7,28.74,12.5,12.5,0,0,0-3.24-.47,12.79,12.79,0,1,0,10,5C50.62,24.12,76.2,10.14,103.83,8.28A97.49,97.49,0,0,1,183.9,42.09a99.69,99.69,0,0,1,18.27,31.65A12.59,12.59,0,1,0,210,71ZM23.54,58.4a5.23,5.23,0,1,1,5.22-5.23A5.22,5.22,0,0,1,23.54,58.4ZM210.37,88.87a5.23,5.23,0,1,1,5.22-5.23A5.23,5.23,0,0,1,210.37,88.87Z"/><path class="cls-1" d="M20.74,55.24a3.37,3.37,0,0,0,2.51,1.14,3.26,3.26,0,0,0,2.05-.77A4.34,4.34,0,0,1,20.74,55.24Z"/><path class="cls-1" d="M409,219.36h10.22c8,0,13.47,5.48,13.47,14S427.4,248,419.1,248H409Zm3.79,25.38h6c6.73,0,9.93-4.82,9.93-11.29,0-5.64-2.92-10.87-9.92-10.87h-6Z"/><path class="cls-1" d="M442.84,219.36V248h-3.79v-28.6Z"/><path class="cls-1" d="M473.94,248H471a16.22,16.22,0,0,1-.36-3.88c-1.25,2-3.71,4.26-8.88,4.26-8.25,0-12.63-6.25-12.63-14.39,0-8.56,4.7-15,13.33-15,6.64,0,10.82,3.6,11.64,8.71h-3.79c-1-3.19-3.27-5.55-7.94-5.55-6.63,0-9.27,5.3-9.27,11.66,0,5.89,2.66,11.38,9.12,11.38s8-4.26,8-9.09v-.29h-8.06v-3.25h11.75Z"/><path class="cls-1" d="M485.08,219.36V248h-3.79v-28.6Z"/><path class="cls-1" d="M499.12,222.61h-9.24v-3.25h22.3v3.25h-9.24V248h-3.82Z"/><path class="cls-1" d="M517.37,239.38,514.29,248h-3.77l10.18-28.6h4.67L536,248h-4l-3.17-8.58Zm10.44-3.25c-2.73-7.51-4.23-11.51-4.84-13.68h-.05c-.69,2.42-2.37,7.25-4.57,13.68Z"/><path class="cls-1" d="M540.92,219.36h3.79v25.35h14.91l-.53,3.25H540.92Z"/><path class="cls-1" d="M599.63,235.77c0-5.31,0-10.71.17-13.71h-.15c-1.22,4.63-5.85,16.9-9.13,25.9h-3.4c-2.48-7.32-7.27-21.08-8.55-26h-.13c.22,3.3.32,9.65.32,14.56V248h-3.57v-28.6h5.65c3.25,8.88,7.22,20.33,8.2,24h.07c.67-2.75,5.36-15.32,8.72-24h5.5V248h-3.7Z"/><path class="cls-1" d="M615.17,239.38,612.1,248h-3.78l10.19-28.6h4.66L633.79,248h-4l-3.17-8.58Zm10.44-3.25c-2.73-7.51-4.22-11.51-4.84-13.68h0c-.7,2.42-2.38,7.25-4.57,13.68Z"/><path class="cls-1" d="M642.48,235.36V248h-3.76v-28.6h11.17c5.88,0,9,3.19,9,7.65a6.54,6.54,0,0,1-4.88,6.73c2.34.63,4.37,2.37,4.37,7.33v1.23c0,2-.1,4.46.38,5.66h-3.69c-.52-1.24-.48-3.46-.48-6.15v-.61c0-4.07-1.15-5.84-6.28-5.84Zm0-3.19h6.21c4.37,0,6.29-1.64,6.29-4.85,0-3-2-4.77-5.86-4.77h-6.64Z"/><path class="cls-1" d="M665.71,219.36h3.77v14c2.12-2.2,9.38-9.39,13.89-14h4.72L675.8,231.42,688.7,248h-4.6l-11-14.08-3.65,3.31V248h-3.77Z"/><path class="cls-1" d="M710.69,234.59H696.47v10.12h15.62L711.6,248H692.75v-28.6h18.62v3.25h-14.9v8.73h14.22Z"/><path class="cls-1" d="M724.68,222.61h-9.24v-3.25h22.3v3.25h-9.25V248h-3.81Z"/><path class="cls-1" d="M746,219.36V248h-3.79v-28.6Z"/><path class="cls-1" d="M754.19,248v-28.6h5c4.11,6.69,13,20.91,14.63,24h.06c-.28-3.67-.25-8.18-.25-12.85V219.36h3.58V248h-4.71c-3.78-6.21-13.09-21.51-14.88-24.72h0c.2,3.26.2,8.11.2,13.27V248Z"/><path class="cls-1" d="M808.35,248h-2.91a16.79,16.79,0,0,1-.36-3.88c-1.25,2-3.71,4.26-8.88,4.26-8.25,0-12.63-6.25-12.63-14.39,0-8.56,4.7-15,13.33-15,6.64,0,10.82,3.6,11.64,8.71h-3.79c-1-3.19-3.27-5.55-7.93-5.55-6.64,0-9.28,5.3-9.28,11.66,0,5.89,2.66,11.38,9.12,11.38s8-4.26,8-9.09v-.29h-8v-3.25h11.74Z"/></g></g></svg>