<svg xmlns="http://www.w3.org/2000/svg" viewBox="0 0 810.77 258.5"><defs><style>.cls-1{fill:#f2f2f2;}</style></defs><g id="Camada_2" data-name="Camada 2"><g id="Camada_1-2" data-name="Camada 1"><path class="cls-1" d="M418.28,217.78,375.38,120,335.1,217.78,260.69,48.16h28l45.74,107,26.92-67.41L374.5,54.29l14.23,33.05,28.89,67.85,42.68-107h27.79Z"/><path class="cls-1" d="M641.3,210.56V124.33l-50.77,75.72-51-75.72v86.23H514.14V40.72l76.39,113.81L666.91,40.72V210.56Z"/><path class="cls-1" d="M746.59,210.56q-25-1.63-51.22-19.7l14.45-20.79c24.07,16.85,46.83,19.7,62.15,8.32,10.95-8.32,16.2-22.77,12.26-34.58a24.57,24.57,0,0,0-10.94-13.14c-6.79-4.16-16-6.13-27.36-6.13l-21.67.22,28-51.43H705.66V48.16h89.51l-29.1,53A74.3,74.3,0,0,1,786.64,109a49.56,49.56,0,0,1,21.45,26.7c3.72,10.72,3.5,23-.22,34.36a59.74,59.74,0,0,1-57.56,40.49Z"/><path class="cls-1" d="M150,240.44a10.54,10.54,0,0,0,3.3,0,10.54,10.54,0,0,1-3.3,0Z"/><path class="cls-1" d="M49.35,249.56a10.85,10.85,0,0,0,12.12,0,10.85,10.85,0,0,1-12.12,0Z"/><path class="cls-1" d="M150.58,51.84a12,12,0,0,0,.22-2.17A12.62,12.62,0,0,0,128.94,41a69,69,0,0,0-49.5,2.57C34.08,63.39,10.87,116,8.74,162.93c-.11,2.48-.08,5-.08,7.46a12.65,12.65,0,1,0,8.27.08c.44-44.55,18-92.07,57.77-115.27,15.93-9.29,33.71-12.06,50.9-6.74,0,.41-.12.8-.12,1.21A12.6,12.6,0,0,0,146.59,59a102.55,102.55,0,0,1,39.52,54.85,131.21,131.21,0,0,1,4.59,41.7,47.23,47.23,0,0,1-5,19.86,12.46,12.46,0,0,0-3.47-.54,12.68,12.68,0,0,0-12.66,12.66,12.13,12.13,0,0,0,.22,2.19c-12.25,4-27.12-2.16-33.68-13.22-6.34-10.66-3.83-22-4.94-33.69-1-10.32-4.17-20.67-10.83-28.78-5.1-6.22-12.67-10.75-20.93-10.07-9.79.8-17.25,8.19-22.24,16.1C66.8,136.45,62.8,157.89,64.34,177a89.09,89.09,0,0,0,29.78,59.65c2.22,2,4.53,3.83,6.9,5.61a12.48,12.48,0,0,0-.58,3.58,12.74,12.74,0,1,0,5.38-10.33c-17.06-13.17-29.33-31.19-32.66-53.14-2.92-19.27.57-41.49,11-58.13,4.44-7,12.11-14.52,21.14-11.38,8.55,3,13.46,12.49,15.78,20.64,3.38,11.92.38,24.18,3.34,36.11a39,39,0,0,0,16.13,23.22,36.55,36.55,0,0,0,32.94,3.94,12.62,12.62,0,0,0,18.91-16.56c4.49-8,6.28-17.23,6.53-26.5a140.56,140.56,0,0,0-5.15-42.66A111.11,111.11,0,0,0,150.58,51.84ZM18.08,182.34a5.22,5.22,0,1,1-5.22-5.22A5.22,5.22,0,0,1,18.08,182.34ZM138.39,54.81a5.22,5.22,0,1,1,5.22-5.22A5.22,5.22,0,0,1,138.39,54.81ZM113,240.89a5.23,5.23,0,1,1-5.22,5.23A5.23,5.23,0,0,1,113,240.89Zm69.36-47.53a5.22,5.22,0,1,1,5.23-5.22A5.22,5.22,0,0,1,182.35,193.36Z"/><path class="cls-1" d="M151.62,217.06a12.64,12.64,0,0,0-10.28,5.33,59.88,59.88,0,0,1-30.51-24.34,61.5,61.5,0,0,1-8.52-37.24,12.69,12.69,0,1,0-8.17-1.53c-1.4,14.87,1.84,30.39,9.6,42.92A68.69,68.69,0,0,0,139,230.27a12.64,12.64,0,1,0,12.61-13.21Zm-56.5-68.45a5.23,5.23,0,1,1,5.22,5.22A5.22,5.22,0,0,1,95.12,148.61Zm56.5,92a11.14,11.14,0,0,1-1.65-.13,10.54,10.54,0,0,0,3.3,0A11.24,11.24,0,0,1,151.62,240.57Zm.28-5.44a5.22,5.22,0,1,1,5.22-5.22A5.22,5.22,0,0,1,151.9,235.13Z"/><path class="cls-1" d="M55.41,227.9A12.58,12.58,0,0,0,54,228a149,149,0,0,1-7.86-28.47c-4.46-23.82-3.51-49.72,5.38-72.46,1.07-2.75,2.34-5.49,3.69-8.21a12.36,12.36,0,0,0,1.73.17,12.68,12.68,0,0,0,12.66-12.66,12.5,12.5,0,0,0-2-6.79,77.09,77.09,0,0,1,16.6-15.44c7.37-4.94,16-8.17,25-7.12,8.37,1,16,5.44,22.11,11.13,13.4,12.57,20.14,30.33,22.05,48.42a12.73,12.73,0,1,0,8.22-.39c-1.81-17.67-8-34.92-19.52-48.6C129.49,72.73,110,64.13,90.91,71.46,79.16,76,69.26,84.53,61.24,94.54a12.46,12.46,0,0,0-4.28-.8,12.66,12.66,0,0,0-9,21.59C36.76,137.43,33.69,163.52,36.25,188c1.5,14.32,4.53,29.79,10.3,43.57a12.64,12.64,0,1,0,8.86-3.64Zm103.08-84.51a5.22,5.22,0,1,1-5.22,5.22A5.22,5.22,0,0,1,158.49,143.39ZM57,101.33a5.22,5.22,0,1,1-5.22,5.22A5.22,5.22,0,0,1,57,101.33Zm-1.55,134a5.22,5.22,0,1,1-5.23,5.22A5.22,5.22,0,0,1,55.41,235.29Zm0,16.12a10.84,10.84,0,0,1-6.06-1.85,10.85,10.85,0,0,0,12.12,0A10.87,10.87,0,0,1,55.41,251.41Z"/><path class="cls-1" d="M210,71h-.14C200.48,45,181.54,22.89,156.56,10.62c-30.07-14.77-65.7-14-95.37,1.43a109.17,109.17,0,0,0-34.7,28.74,12.5,12.5,0,0,0-3.24-.47,12.79,12.79,0,1,0,10,5C50.62,24.12,76.2,10.14,103.83,8.28A97.49,97.49,0,0,1,183.9,42.09a99.69,99.69,0,0,1,18.27,31.65A12.59,12.59,0,1,0,210,71ZM23.54,58.4a5.23,5.23,0,1,1,5.22-5.23A5.22,5.22,0,0,1,23.54,58.4ZM210.37,88.87a5.23,5.23,0,1,1,5.22-5.23A5.23,5.23,0,0,1,210.37,88.87Z"/><path class="cls-1" d="M20.74,55.24a3.37,3.37,0,0,0,2.51,1.14,3.26,3.26,0,0,0,2.05-.77A4.34,4.34,0,0,1,20.74,55.24Z"/></g></g></svg>