<svg xmlns="http://www.w3.org/2000/svg" xmlns:xlink="http://www.w3.org/1999/xlink" viewBox="0 0 585.34 679.54"><defs><style>.cls-1{fill:url(#Gradiente_sem_nome_30);}.cls-2{fill:url(#Gradiente_sem_nome_30-2);}.cls-3{fill:url(#Gradiente_sem_nome_30-3);}.cls-4{fill:url(#Gradiente_sem_nome_30-4);}.cls-5{fill:url(#Gradiente_sem_nome_30-5);}.cls-6{fill:url(#Gradiente_sem_nome_30-6);}.cls-7{fill:url(#Gradiente_sem_nome_30-7);}</style><linearGradient id="Gradiente_sem_nome_30" x1="-49.58" y1="278.98" x2="381.34" y2="618.49" gradientUnits="userSpaceOnUse"><stop offset="0.02" stop-color="#364559"/><stop offset="0.56" stop-color="#5686a5"/><stop offset="1" stop-color="#7e7f7f"/></linearGradient><linearGradient id="Gradiente_sem_nome_30-2" x1="-158.09" y1="416.71" x2="272.82" y2="756.22" xlink:href="#Gradiente_sem_nome_30"/><linearGradient id="Gradiente_sem_nome_30-3" x1="32.7" y1="174.55" x2="463.62" y2="514.06" xlink:href="#Gradiente_sem_nome_30"/><linearGradient id="Gradiente_sem_nome_30-4" x1="-9.65" y1="228.31" x2="421.26" y2="567.81" xlink:href="#Gradiente_sem_nome_30"/><linearGradient id="Gradiente_sem_nome_30-5" x1="-14.56" y1="234.54" x2="416.35" y2="574.05" xlink:href="#Gradiente_sem_nome_30"/><linearGradient id="Gradiente_sem_nome_30-6" x1="146.45" y1="30.18" x2="577.36" y2="369.69" xlink:href="#Gradiente_sem_nome_30"/><linearGradient id="Gradiente_sem_nome_30-7" x1="57.34" y1="143.28" x2="488.26" y2="482.79" xlink:href="#Gradiente_sem_nome_30"/></defs><g id="Camada_2" data-name="Camada 2"><g id="Camada_1-2" data-name="Camada 1"><path class="cls-1" d="M394.23,632.06a28.64,28.64,0,0,0,8.67,0,28.64,28.64,0,0,1-8.67,0Z"/><path class="cls-2" d="M129.72,656a28.49,28.49,0,0,0,31.86,0,28.49,28.49,0,0,1-31.86,0Z"/><path class="cls-3" d="M395.85,136.27a32.38,32.38,0,0,0,.58-5.69,33.2,33.2,0,0,0-57.49-22.72C296.38,94.18,251.57,96,208.83,114.61,89.58,166.63,28.59,305,23,428.29c-.3,6.54-.21,13.08-.22,19.62a33.26,33.26,0,1,0,21.75.21c1.17-117.1,47.3-242,151.86-303,41.88-24.43,88.63-31.7,133.81-17.71-.1,1.06-.32,2.09-.32,3.18a33.15,33.15,0,0,0,55.5,24.61c49.46,34.18,87.43,87.06,103.88,144.17C499.21,334,503.09,373,501.31,409c-.92,18.44-4.91,36.48-13.27,52.21a32.88,32.88,0,0,0-9.13-1.43,32.88,32.88,0,0,0-32.71,39c-32.2,10.43-71.28-5.69-88.54-34.76-16.65-28-10.07-57.88-13-88.56-2.58-27.13-10.94-54.34-28.45-75.67-13.41-16.34-33.31-28.24-55-26.46-25.75,2.11-45.35,21.54-58.47,42.34-27.14,43-37.64,99.36-33.59,149.59a234.22,234.22,0,0,0,78.29,156.82c5.82,5.18,11.9,10,18.13,14.72a33.18,33.18,0,1,0,12.62-17.73c-44.85-34.63-77.1-82-85.86-139.69-7.68-50.66,1.5-109.08,29-152.82C233,308.05,253.2,288.43,277,296.69c22.48,7.83,35.38,32.84,41.46,54.25,8.89,31.33,1,63.56,8.8,94.91,6.18,24.89,20.94,46.86,42.39,61a96.08,96.08,0,0,0,86.6,10.36,33.18,33.18,0,0,0,49.7-43.54c11.81-21,16.5-45.28,17.18-69.64,1-36.85-3.07-76.78-13.55-112.17C491.18,229.94,449.67,172.9,395.85,136.27Zm-348.31,343A13.73,13.73,0,1,1,33.81,465.6,13.73,13.73,0,0,1,47.54,479.32ZM363.8,144.09a13.73,13.73,0,1,1,13.73-13.72A13.72,13.72,0,0,1,363.8,144.09ZM297,633.25A13.73,13.73,0,1,1,283.3,647,13.73,13.73,0,0,1,297,633.25ZM479.36,508.31a13.73,13.73,0,1,1,13.73-13.73A13.73,13.73,0,0,1,479.36,508.31Z"/><path class="cls-4" d="M398.56,570.61a33.2,33.2,0,0,0-27,14c-32.76-12-61.69-34.05-80.21-64-17.83-28.82-25.22-63.92-22.39-97.92a33.37,33.37,0,1,0-21.46-4c-3.69,39.09,4.83,79.89,25.22,112.83,21.22,34.27,54.77,60.28,92.72,73.79a33.23,33.23,0,1,0,33.14-34.71ZM250.06,390.67a13.73,13.73,0,1,1,13.72,13.72A13.73,13.73,0,0,1,250.06,390.67Zm148.5,241.72a28.11,28.11,0,0,1-4.33-.33,28.64,28.64,0,0,0,8.67,0A28.15,28.15,0,0,1,398.56,632.39Zm.75-14.3A13.73,13.73,0,1,1,413,604.37,13.73,13.73,0,0,1,399.31,618.09Z"/><path class="cls-5" d="M145.65,599.1a34.1,34.1,0,0,0-3.66.37c-9.75-24.06-16-50.13-20.65-74.85-11.72-62.62-9.23-130.71,14.15-190.49,2.82-7.21,6.15-14.41,9.7-21.58a32.48,32.48,0,0,0,4.54.46A33.33,33.33,0,0,0,183,279.72a33,33,0,0,0-5.29-17.85c12.87-15.71,27.46-29.77,43.63-40.59,19.38-13,42.1-21.47,65.7-18.7,22,2.58,42.18,14.3,58.12,29.25,35.22,33,52.95,79.73,58,127.29a33.43,33.43,0,1,0,21.61-1c-4.76-46.46-21-91.79-51.34-127.77C340.4,191.2,289,168.59,239,187.86c-30.9,11.9-56.92,34.35-78,60.66a32.83,32.83,0,0,0-11.24-2.09,33.27,33.27,0,0,0-23.6,56.74c-29.48,58.11-37.56,126.69-30.84,191,3.93,37.65,11.92,78.33,27.07,114.55a33.24,33.24,0,1,0,23.29-9.57Zm271-222.16a13.73,13.73,0,1,1-13.73,13.73A13.73,13.73,0,0,1,416.63,376.94ZM149.74,266.37A13.73,13.73,0,1,1,136,280.1,13.73,13.73,0,0,1,149.74,266.37Zm-4.09,352.14a13.73,13.73,0,1,1-13.73,13.72A13.73,13.73,0,0,1,145.65,618.51Zm0,42.38A28.39,28.39,0,0,1,129.72,656a28.49,28.49,0,0,0,31.86,0A28.39,28.39,0,0,1,145.65,660.89Z"/><path class="cls-6" d="M552.05,186.51l-.36,0C527,118.4,477.23,60.17,411.56,27.91,332.51-10.92,238.85-8.84,160.85,31.67c-35.51,18.45-66.32,44.51-91.23,75.56A32.77,32.77,0,0,0,61.11,106,33.29,33.29,0,1,0,94.4,139.28a33,33,0,0,0-6.9-20.06C133.08,63.4,200.31,26.65,273,21.78,353.08,16.4,431.08,50,483.43,110.64a262.15,262.15,0,0,1,48,83.21,33.1,33.1,0,1,0,20.6-7.34Zm-490.18-33A13.73,13.73,0,1,1,75.6,139.78,13.73,13.73,0,0,1,61.87,153.51ZM553,233.61a13.73,13.73,0,1,1,13.73-13.73A13.73,13.73,0,0,1,553,233.61Z"/><path class="cls-7" d="M54.53,145.2a8.83,8.83,0,0,0,6.58,3,8.74,8.74,0,0,0,5.41-2A11.41,11.41,0,0,1,54.53,145.2Z"/></g></g></svg>