<svg width="150" height="150" viewBox="0 0 150 150" xmlns="http://www.w3.org/2000/svg">
  <defs>
    <linearGradient id="skinGradient" x1="0%" y1="0%" x2="100%" y2="100%">
      <stop offset="0%" style="stop-color:#F4C2A1;stop-opacity:1" />
      <stop offset="100%" style="stop-color:#E8A87C;stop-opacity:1" />
    </linearGradient>
    <linearGradient id="hairGradient" x1="0%" y1="0%" x2="100%" y2="100%">
      <stop offset="0%" style="stop-color:#4A4A4A;stop-opacity:1" />
      <stop offset="100%" style="stop-color:#2C2C2C;stop-opacity:1" />
    </linearGradient>
    <linearGradient id="shirtGradient" x1="0%" y1="0%" x2="100%" y2="100%">
      <stop offset="0%" style="stop-color:#1E3A8A;stop-opacity:1" />
      <stop offset="100%" style="stop-color:#1E40AF;stop-opacity:1" />
    </linearGradient>
  </defs>
  
  <!-- Background circle -->
  <circle cx="75" cy="75" r="75" fill="#F8FAFC"/>
  
  <!-- Shirt/Suit -->
  <path d="M30 120 Q30 110 40 105 L60 100 Q75 95 90 100 L110 105 Q120 110 120 120 L120 150 L30 150 Z" fill="url(#shirtGradient)"/>
  
  <!-- Neck -->
  <ellipse cx="75" cy="105" rx="12" ry="8" fill="url(#skinGradient)"/>
  
  <!-- Face -->
  <ellipse cx="75" cy="80" rx="25" ry="30" fill="url(#skinGradient)"/>
  
  <!-- Hair -->
  <path d="M50 65 Q50 45 75 45 Q100 45 100 65 Q100 55 95 50 Q90 45 85 45 Q80 43 75 43 Q70 43 65 45 Q60 45 55 50 Q50 55 50 65 Z" fill="url(#hairGradient)"/>
  
  <!-- Eyes -->
  <ellipse cx="68" cy="75" rx="3" ry="2" fill="#2C2C2C"/>
  <ellipse cx="82" cy="75" rx="3" ry="2" fill="#2C2C2C"/>
  <ellipse cx="68" cy="74" rx="1" ry="1" fill="#FFFFFF"/>
  <ellipse cx="82" cy="74" rx="1" ry="1" fill="#FFFFFF"/>
  
  <!-- Eyebrows -->
  <path d="M64 70 Q68 68 72 70" stroke="#2C2C2C" stroke-width="2" fill="none"/>
  <path d="M78 70 Q82 68 86 70" stroke="#2C2C2C" stroke-width="2" fill="none"/>
  
  <!-- Nose -->
  <path d="M75 78 Q76 82 75 85" stroke="#D4A574" stroke-width="1" fill="none"/>
  
  <!-- Mouth -->
  <path d="M70 90 Q75 93 80 90" stroke="#B8860B" stroke-width="2" fill="none"/>
  
  <!-- Collar -->
  <path d="M60 100 Q75 98 90 100" stroke="#FFFFFF" stroke-width="2" fill="none"/>
</svg>