<svg width="150" height="150" viewBox="0 0 150 150" xmlns="http://www.w3.org/2000/svg">
  <defs>
    <linearGradient id="skinGradient" x1="0%" y1="0%" x2="100%" y2="100%">
      <stop offset="0%" style="stop-color:#D2B48C;stop-opacity:1" />
      <stop offset="100%" style="stop-color:#C19A6B;stop-opacity:1" />
    </linearGradient>
    <linearGradient id="hairGradient" x1="0%" y1="0%" x2="100%" y2="100%">
      <stop offset="0%" style="stop-color:#2F2F2F;stop-opacity:1" />
      <stop offset="100%" style="stop-color:#1A1A1A;stop-opacity:1" />
    </linearGradient>
    <linearGradient id="shirtGradient" x1="0%" y1="0%" x2="100%" y2="100%">
      <stop offset="0%" style="stop-color:#059669;stop-opacity:1" />
      <stop offset="100%" style="stop-color:#047857;stop-opacity:1" />
    </linearGradient>
  </defs>
  
  <!-- Background circle -->
  <circle cx="75" cy="75" r="75" fill="#F8FAFC"/>
  
  <!-- Shirt -->
  <path d="M30 120 Q30 110 40 105 L60 100 Q75 95 90 100 L110 105 Q120 110 120 120 L120 150 L30 150 Z" fill="url(#shirtGradient)"/>
  
  <!-- Neck -->
  <ellipse cx="75" cy="105" rx="12" ry="8" fill="url(#skinGradient)"/>
  
  <!-- Face -->
  <ellipse cx="75" cy="80" rx="26" ry="32" fill="url(#skinGradient)"/>
  
  <!-- Hair (short professional cut) -->
  <path d="M49 68 Q49 48 75 46 Q101 48 101 68 Q101 58 98 53 Q95 48 90 46 Q85 44 75 44 Q65 44 60 46 Q55 48 52 53 Q49 58 49 68 Z" fill="url(#hairGradient)"/>
  
  <!-- Beard -->
  <path d="M60 88 Q65 95 75 96 Q85 95 90 88 Q88 100 85 105 Q80 108 75 108 Q70 108 65 105 Q62 100 60 88 Z" fill="url(#hairGradient)"/>
  
  <!-- Eyes -->
  <ellipse cx="67" cy="75" rx="3" ry="2" fill="#2C2C2C"/>
  <ellipse cx="83" cy="75" rx="3" ry="2" fill="#2C2C2C"/>
  <ellipse cx="67" cy="74" rx="1" ry="1" fill="#FFFFFF"/>
  <ellipse cx="83" cy="74" rx="1" ry="1" fill="#FFFFFF"/>
  
  <!-- Eyebrows (thicker) -->
  <path d="M62 70 Q67 68 72 70" stroke="#1A1A1A" stroke-width="3" fill="none"/>
  <path d="M78 70 Q83 68 88 70" stroke="#1A1A1A" stroke-width="3" fill="none"/>
  
  <!-- Nose -->
  <path d="M75 78 Q76 82 75 86" stroke="#B8860B" stroke-width="1" fill="none"/>
  
  <!-- Mouth -->
  <path d="M69 91 Q75 94 81 91" stroke="#8B4513" stroke-width="2" fill="none"/>
  
  <!-- Glasses -->
  <ellipse cx="67" cy="75" rx="8" ry="6" fill="none" stroke="#2C2C2C" stroke-width="2"/>
  <ellipse cx="83" cy="75" rx="8" ry="6" fill="none" stroke="#2C2C2C" stroke-width="2"/>
  <path d="M75 75 L78 75" stroke="#2C2C2C" stroke-width="2" fill="none"/>
  
  <!-- Collar and tie -->
  <path d="M60 100 Q75 98 90 100" stroke="#FFFFFF" stroke-width="2" fill="none"/>
  <path d="M75 100 L75 115 L70 110 L75 100 L80 110 Z" fill="#DC2626"/>
</svg>